<svg width="284" height="61" viewBox="0 0 284 61" fill="none" xmlns="http://www.w3.org/2000/svg">
<path d="M62.55 49.45C61.35 49.45 60.4833 49.2833 59.95 48.95C59.4167 48.5833 59.0833 48.1 58.95 47.5C58.8167 46.9 58.75 46.2833 58.75 45.65V18.3C58.75 17.6333 58.8 17.0167 58.9 16.45C59.0333 15.8833 59.3667 15.4167 59.9 15.05C60.4333 14.6833 61.3167 14.5 62.55 14.5C63.8167 14.5 64.7 14.6833 65.2 15.05C65.7333 15.4167 66.05 15.8833 66.15 16.45C66.2833 17.0167 66.35 17.6333 66.35 18.3V42.85H80.05C80.6167 42.85 81.15 42.9 81.65 43C82.15 43.1 82.55 43.3833 82.85 43.85C83.1833 44.3167 83.35 45.0833 83.35 46.15C83.35 47.1833 83.1833 47.95 82.85 48.45C82.5167 48.9167 82.1 49.2 81.6 49.3C81.1333 49.4 80.6167 49.45 80.05 49.45H62.55ZM90.0215 49.45C88.8215 49.45 87.9548 49.2833 87.4215 48.95C86.8882 48.5833 86.5548 48.1 86.4215 47.5C86.3215 46.9 86.2715 46.2833 86.2715 45.65V18.3C86.2715 17.6333 86.3215 17.0167 86.4215 16.45C86.5548 15.8833 86.8882 15.4167 87.4215 15.05C87.9548 14.6833 88.8382 14.5 90.0715 14.5C91.3382 14.5 92.2215 14.6833 92.7215 15.05C93.2548 15.4167 93.5715 15.8833 93.6715 16.45C93.8048 17.0167 93.8715 17.65 93.8715 18.35V45.7C93.8715 46.3333 93.8048 46.95 93.6715 47.55C93.5382 48.1167 93.2048 48.5833 92.6715 48.95C92.1715 49.2833 91.2882 49.45 90.0215 49.45ZM102.193 49.45C100.993 49.45 100.126 49.2833 99.5926 48.95C99.0592 48.5833 98.7259 48.1 98.5926 47.5C98.4926 46.9 98.4426 46.2833 98.4426 45.65V18.3C98.4426 16.8333 98.7259 15.8333 99.2926 15.3C99.8592 14.7667 100.876 14.5 102.343 14.5H121.243C121.909 14.5 122.526 14.5667 123.093 14.7C123.659 14.8 124.109 15.1167 124.443 15.65C124.809 16.1833 124.993 17.0833 124.993 18.35C124.993 19.55 124.809 20.4167 124.443 20.95C124.076 21.4833 123.593 21.8167 122.993 21.95C122.426 22.05 121.809 22.1 121.143 22.1H106.043V28.55H116.293C116.959 28.55 117.543 28.6 118.043 28.7C118.576 28.8 118.993 29.0833 119.293 29.55C119.593 30.0167 119.743 30.8 119.743 31.9C119.743 32.9667 119.593 33.7333 119.293 34.2C118.993 34.6333 118.576 34.9 118.043 35C117.543 35.1 116.943 35.15 116.243 35.15H106.043V45.7C106.043 46.3333 105.976 46.95 105.843 47.55C105.709 48.1167 105.376 48.5833 104.843 48.95C104.343 49.2833 103.459 49.45 102.193 49.45ZM133.15 49.45C131.95 49.45 131.083 49.2833 130.55 48.95C130.016 48.5833 129.683 48.1 129.55 47.5C129.45 46.9 129.4 46.2833 129.4 45.65V18.3C129.4 16.8333 129.683 15.8333 130.25 15.3C130.816 14.7667 131.833 14.5 133.3 14.5H152.2C152.866 14.5 153.483 14.5667 154.05 14.7C154.616 14.8 155.083 15.1167 155.45 15.65C155.816 16.1833 156 17.0833 156 18.35C156 19.55 155.816 20.4167 155.45 20.95C155.083 21.4833 154.6 21.8167 154 21.95C153.433 22.05 152.816 22.1 152.15 22.1H137V28.55H147.3C147.966 28.55 148.55 28.6 149.05 28.7C149.583 28.8 150 29.0833 150.3 29.55C150.6 30.0167 150.75 30.8 150.75 31.9C150.75 32.9333 150.6 33.6833 150.3 34.15C150 34.6167 149.583 34.9 149.05 35C148.516 35.1 147.9 35.15 147.2 35.15H137V41.85H152.2C152.866 41.85 153.483 41.9167 154.05 42.05C154.616 42.1833 155.083 42.5167 155.45 43.05C155.816 43.55 156 44.4333 156 45.7C156 46.9 155.816 47.7667 155.45 48.3C155.083 48.8333 154.6 49.15 154 49.25C153.433 49.3833 152.816 49.45 152.15 49.45H133.15ZM163.567 49.45C162.367 49.45 161.501 49.2667 160.967 48.9C160.434 48.5333 160.101 48.05 159.967 47.45C159.867 46.85 159.817 46.2333 159.817 45.6V18.25C159.817 17.6167 159.867 17.0167 159.967 16.45C160.101 15.8833 160.434 15.4167 160.967 15.05C161.501 14.6833 162.384 14.5 163.617 14.5H174.017C175.384 14.5 176.784 14.75 178.217 15.25C179.651 15.75 180.967 16.5167 182.167 17.55C183.367 18.5833 184.334 19.8667 185.067 21.4C185.801 22.9333 186.167 24.75 186.167 26.85C186.167 28.25 185.951 29.6 185.517 30.9C185.117 32.2 184.501 33.4 183.667 34.5C182.834 35.6 181.801 36.55 180.567 37.35C179.334 38.1167 177.917 38.6667 176.317 39H167.417V45.65C167.417 46.2833 167.351 46.9 167.217 47.5C167.084 48.0667 166.751 48.5333 166.217 48.9C165.684 49.2667 164.801 49.45 163.567 49.45ZM184.667 48.45C183.434 49.35 182.451 49.7 181.717 49.5C180.984 49.3 180.217 48.65 179.417 47.55L170.617 34.95L179.167 33.85L185.617 43.1C186.184 43.9 186.534 44.5833 186.667 45.15C186.834 45.7167 186.751 46.25 186.417 46.75C186.117 47.25 185.534 47.8167 184.667 48.45ZM167.417 31.5H174.367C174.834 31.5 175.317 31.4167 175.817 31.25C176.317 31.05 176.767 30.7667 177.167 30.4C177.567 30.0333 177.901 29.55 178.167 28.95C178.434 28.35 178.567 27.6333 178.567 26.8C178.567 25.8333 178.367 25 177.967 24.3C177.601 23.6 177.067 23.0667 176.367 22.7C175.667 22.3 174.851 22.1 173.917 22.1H167.417V31.5ZM221.211 44.15C221.611 44.9833 221.827 45.7 221.861 46.3C221.894 46.8667 221.711 47.3833 221.311 47.85C220.944 48.2833 220.327 48.7167 219.461 49.15C218.127 49.7833 217.094 49.9667 216.361 49.7C215.627 49.4667 214.944 48.6833 214.311 47.35L204.511 26.85L194.761 47.35C194.094 48.65 193.394 49.4167 192.661 49.65C191.961 49.9167 190.944 49.7333 189.611 49.1C188.744 48.7 188.111 48.2833 187.711 47.85C187.344 47.3833 187.177 46.85 187.211 46.25C187.244 45.6167 187.477 44.8833 187.911 44.05L201.061 16.7C201.394 16.0333 201.877 15.5 202.511 15.1C203.177 14.7 203.861 14.5 204.561 14.5C205.061 14.5 205.527 14.6 205.961 14.8C206.394 14.9667 206.777 15.2167 207.111 15.55C207.477 15.8833 207.777 16.2833 208.011 16.75L221.211 44.15ZM196.111 41.3L199.211 34.85H209.861L212.961 41.3H196.111ZM228.46 49.45C227.26 49.45 226.393 49.2667 225.86 48.9C225.326 48.5333 224.993 48.05 224.86 47.45C224.76 46.85 224.71 46.2333 224.71 45.6V18.25C224.71 17.6167 224.76 17.0167 224.86 16.45C224.993 15.8833 225.326 15.4167 225.86 15.05C226.393 14.6833 227.276 14.5 228.51 14.5H238.91C240.276 14.5 241.676 14.75 243.11 15.25C244.543 15.75 245.86 16.5167 247.06 17.55C248.26 18.5833 249.226 19.8667 249.96 21.4C250.693 22.9333 251.06 24.75 251.06 26.85C251.06 28.25 250.843 29.6 250.41 30.9C250.01 32.2 249.393 33.4 248.56 34.5C247.726 35.6 246.693 36.55 245.46 37.35C244.226 38.1167 242.81 38.6667 241.21 39H232.31V45.65C232.31 46.2833 232.243 46.9 232.11 47.5C231.976 48.0667 231.643 48.5333 231.11 48.9C230.576 49.2667 229.693 49.45 228.46 49.45ZM249.56 48.45C248.326 49.35 247.343 49.7 246.61 49.5C245.876 49.3 245.11 48.65 244.31 47.55L235.51 34.95L244.06 33.85L250.51 43.1C251.076 43.9 251.426 44.5833 251.56 45.15C251.726 45.7167 251.643 46.25 251.31 46.75C251.01 47.25 250.426 47.8167 249.56 48.45ZM232.31 31.5H239.26C239.726 31.5 240.21 31.4167 240.71 31.25C241.21 31.05 241.66 30.7667 242.06 30.4C242.46 30.0333 242.793 29.55 243.06 28.95C243.326 28.35 243.46 27.6333 243.46 26.8C243.46 25.8333 243.26 25 242.86 24.3C242.493 23.6 241.96 23.0667 241.26 22.7C240.56 22.3 239.743 22.1 238.81 22.1H232.31V31.5ZM281.1 15.05C282.3 15.8833 282.95 16.6833 283.05 17.45C283.183 18.1833 282.9 19.0833 282.2 20.15L271.65 36V45.75C271.65 46.3833 271.583 47 271.45 47.6C271.316 48.1667 270.983 48.6333 270.45 49C269.95 49.3667 269.066 49.55 267.8 49.55C266.566 49.55 265.683 49.3667 265.15 49C264.616 48.6333 264.283 48.15 264.15 47.55C264.05 46.95 264 46.3167 264 45.65V36L253.4 20.15C252.666 19.0833 252.383 18.1667 252.55 17.4C252.716 16.6333 253.383 15.85 254.55 15.05C255.416 14.4833 256.15 14.15 256.75 14.05C257.35 13.95 257.9 14.0667 258.4 14.4C258.9 14.7333 259.383 15.2833 259.85 16.05L267.7 28.55L275.75 16.05C276.283 15.25 276.783 14.7 277.25 14.4C277.75 14.0667 278.3 13.95 278.9 14.05C279.5 14.15 280.233 14.4833 281.1 15.05Z" fill="#2A75F3"/>
<g clip-path="url(#clip0_411_3)">
<path d="M5.84675 24.1388L1.94892 28.0367C0.872559 29.113 0.87256 30.8582 1.94892 31.9345L24.0366 54.0222C25.113 55.0986 26.8581 55.0986 27.9345 54.0222L31.8323 50.1244C32.9087 49.048 32.9087 47.3029 31.8323 46.2266L9.74458 24.1388C8.66822 23.0625 6.92311 23.0625 5.84675 24.1388Z" fill="#2A75F3"/>
<path d="M11.0439 22.8396L24.0367 35.8323C25.113 36.9087 26.8582 36.9087 27.9345 35.8323L31.8323 31.9345C32.9087 30.8581 32.9087 29.113 31.8323 28.0367L18.8396 15.0439C17.7632 13.9675 16.0181 13.9675 14.9417 15.0439L11.0439 18.9417C9.96755 20.0181 9.96755 21.7632 11.0439 22.8396Z" fill="#FBBC05"/>
<path d="M33.1316 33.2337L20.1389 46.2265C19.0625 47.3029 19.0625 49.048 20.1389 50.1243L24.0367 54.0222C25.113 55.0985 26.8582 55.0985 27.9345 54.0222L40.9273 41.0294C42.0037 39.953 42.0037 38.2079 40.9273 37.1316L37.0295 33.2337C35.9531 32.1574 34.208 32.1574 33.1316 33.2337Z" fill="#2A75F3"/>
<path d="M42.2265 24.1388L38.3287 28.0367C37.2523 29.113 37.2523 30.8582 38.3287 31.9345L42.2265 35.8323C43.3029 36.9087 45.048 36.9087 46.1243 35.8323L50.0222 31.9345C51.0985 30.8582 51.0985 29.113 50.0222 28.0367L46.1243 24.1388C45.048 23.0625 43.3029 23.0625 42.2265 24.1388Z" fill="#2A75F3"/>
<path d="M24.0367 5.94891L20.1389 9.84674C19.0625 10.9231 19.0625 12.6682 20.1389 13.7446L33.1316 26.7373C34.208 27.8137 35.9531 27.8137 37.0295 26.7373L40.9273 22.8395C42.0037 21.7632 42.0037 20.018 40.9273 18.9417L27.9345 5.94891C26.8582 4.87255 25.113 4.87255 24.0367 5.94891Z" fill="#FBBC05"/>
</g>
<defs>
<clipPath id="clip0_411_3">
<rect width="52" height="52" fill="white" transform="translate(0 4)"/>
</clipPath>
</defs>
</svg>
