<svg width="97" height="97" viewBox="0 0 97 97" fill="none" xmlns="http://www.w3.org/2000/svg">
<g clip-path="url(#clip0_515_8)">
<path d="M10.9064 37.5666L3.63548 44.8375C1.62766 46.8454 1.62766 50.1007 3.63548 52.1085L44.8376 93.3106C46.8454 95.3184 50.1007 95.3184 52.1085 93.3106L59.3795 86.0396C61.3873 84.0318 61.3873 80.7765 59.3795 78.7687L18.1774 37.5666C16.1696 35.5588 12.9143 35.5588 10.9064 37.5666Z" fill="#4285F4"/>
<path d="M20.601 35.1429L44.8375 59.3794C46.8454 61.3872 50.1007 61.3872 52.1085 59.3794L59.3795 52.1085C61.3873 50.1006 61.3873 46.8453 59.3795 44.8375L35.1429 20.601C33.1351 18.5932 29.8798 18.5932 27.872 20.601L20.601 27.8719C18.5932 29.8798 18.5932 33.1351 20.601 35.1429Z" fill="#FBBC05"/>
<path d="M61.8032 54.5322L37.5666 78.7687C35.5588 80.7765 35.5588 84.0318 37.5666 86.0397L44.8376 93.3106C46.8454 95.3184 50.1007 95.3184 52.1085 93.3106L76.3451 69.0741C78.3529 67.0663 78.3529 63.811 76.3451 61.8031L69.0741 54.5322C67.0663 52.5244 63.811 52.5244 61.8032 54.5322Z" fill="#4285F4"/>
<path d="M78.7687 37.5666L71.4978 44.8375C69.49 46.8454 69.49 50.1007 71.4978 52.1085L78.7687 59.3795C80.7766 61.3873 84.0319 61.3873 86.0397 59.3795L93.3106 52.1085C95.3185 50.1007 95.3185 46.8454 93.3106 44.8375L86.0397 37.5666C84.0319 35.5588 80.7766 35.5588 78.7687 37.5666Z" fill="#4285F4"/>
<path d="M44.8376 3.63544L37.5666 10.9064C35.5588 12.9142 35.5588 16.1695 37.5666 18.1773L61.8032 42.4139C63.811 44.4217 67.0663 44.4217 69.0741 42.4139L76.3451 35.1429C78.3529 33.1351 78.3529 29.8798 76.3451 27.872L52.1085 3.63544C50.1007 1.62762 46.8454 1.62762 44.8376 3.63544Z" fill="#FBBC05"/>
</g>
<defs>
<clipPath id="clip0_515_8">
<rect width="97" height="97" fill="white"/>
</clipPath>
</defs>
</svg>
