<svg width="223" height="44" viewBox="0 0 223 44" fill="none" xmlns="http://www.w3.org/2000/svg">
<path d="M0 4.5C0 2.567 1.567 1 3.5 1V1C5.433 1 7 2.567 7 4.5V37.5C7 39.433 5.433 41 3.5 41V41C1.567 41 0 39.433 0 37.5V4.5Z" fill="#4285F4"/>
<path d="M203 19.5001C203 17.5671 204.567 16.0001 206.5 16.0001V16.0001C208.433 16.0001 210 17.5671 210 19.5001V37.5001C210 39.4331 208.433 41.0001 206.5 41.0001V41.0001C204.567 41.0001 203 39.4331 203 37.5001V19.5001Z" fill="#4285F4"/>
<path d="M192.877 6.70819C191.84 5.07668 192.323 2.91371 193.954 1.87705V1.87705C195.586 0.840384 197.749 1.3226 198.785 2.9541L208.439 18.1466C209.475 19.7781 208.993 21.9411 207.362 22.9778V22.9778C205.73 24.0144 203.567 23.5322 202.53 21.9007L192.877 6.70819Z" fill="#4285F4"/>
<path d="M214.53 2.95417C215.566 1.32262 217.729 0.840335 219.361 1.87694V1.87694C220.992 2.91355 221.475 5.07651 220.438 6.70805L210.785 21.9009C209.749 23.5324 207.586 24.0147 205.954 22.9781V22.9781C204.323 21.9415 203.84 19.7786 204.877 18.147L214.53 2.95417Z" fill="#4285F4"/>
<path d="M98.5 4.5C98.5 2.567 100.067 1 102 1V1C103.933 1 105.5 2.567 105.5 4.5V37.5C105.5 39.433 103.933 41 102 41V41C100.067 41 98.5 39.433 98.5 37.5V4.5Z" fill="#4285F4"/>
<path d="M166 4.5C166 2.567 167.567 1 169.5 1V1C171.433 1 173 2.567 173 4.5V37.5C173 39.433 171.433 41 169.5 41V41C167.567 41 166 39.433 166 37.5V4.5Z" fill="#4285F4"/>
<path d="M69 4.5C69 2.567 70.567 1 72.5 1V1C74.433 1 76 2.567 76 4.5V37.5C76 39.433 74.433 41 72.5 41V41C70.567 41 69 39.433 69 37.5V4.5Z" fill="#4285F4"/>
<path d="M40 4.5C40 2.567 41.567 1 43.5 1V1C45.433 1 47 2.567 47 4.5V37.5C47 39.433 45.433 41 43.5 41V41C41.567 41 40 39.433 40 37.5V4.5Z" fill="#4285F4"/>
<path d="M29 14.5C29 12.567 30.567 11 32.5 11V11C34.433 11 36 12.567 36 14.5V37.5C36 39.433 34.433 41 32.5 41V41C30.567 41 29 39.433 29 37.5V14.5Z" fill="#4285F4"/>
<path d="M21.5 34C23.433 34 25 35.567 25 37.5V37.5C25 39.433 23.433 41 21.5 41L3.5 41C1.567 41 0 39.433 0 37.5V37.5C0 35.567 1.567 34 3.5 34L21.5 34Z" fill="#4285F4"/>
<mask id="path-11-inside-1_53_87" fill="white">
<path d="M113.5 1C119.023 1 123.5 5.47715 123.5 11V12C123.5 17.5228 119.023 22 113.5 22L98.5 22L98.5 6C98.5 3.23858 100.739 1 103.5 1L113.5 1Z"/>
</mask>
<path d="M113.5 1C119.023 1 123.5 5.47715 123.5 11V12C123.5 17.5228 119.023 22 113.5 22L98.5 22L98.5 6C98.5 3.23858 100.739 1 103.5 1L113.5 1Z" stroke="#4285F4" stroke-width="14" mask="url(#path-11-inside-1_53_87)"/>
<mask id="path-12-inside-2_53_87" fill="white">
<path d="M181 1C186.523 1 191 5.47715 191 11V12C191 17.5228 186.523 22 181 22L166 22V6C166 3.23858 168.239 1 171 1L181 1Z"/>
</mask>
<path d="M181 1C186.523 1 191 5.47715 191 11V12C191 17.5228 186.523 22 181 22L166 22V6C166 3.23858 168.239 1 171 1L181 1Z" stroke="#4285F4" stroke-width="14" mask="url(#path-12-inside-2_53_87)"/>
<path d="M90.5 34C92.433 34 94 35.567 94 37.5V37.5C94 39.433 92.433 41 90.5 41L72.5 41C70.567 41 69 39.433 69 37.5V37.5C69 35.567 70.567 34 72.5 34L90.5 34Z" fill="#4285F4"/>
<path d="M108.956 21.981C108.139 20.229 108.897 18.1467 110.649 17.33V17.33C112.401 16.5133 114.484 17.2716 115.3 19.0236L123.233 36.0413C124.05 37.7933 123.292 39.8756 121.54 40.6923V40.6923C119.788 41.509 117.705 40.7507 116.889 38.9987L108.956 21.981Z" fill="#4285F4"/>
<path d="M176.479 22.1298C175.662 20.3778 176.42 18.2955 178.172 17.4788V17.4788C179.924 16.6621 182.007 17.4203 182.823 19.1723L190.756 36.19C191.573 37.942 190.814 40.0244 189.062 40.841V40.841C187.31 41.6577 185.228 40.8995 184.411 39.1475L176.479 22.1298Z" fill="#4285F4"/>
<path d="M90.5 1C92.433 1 94 2.567 94 4.5V4.5C94 6.433 92.433 8 90.5 8L72.5 8C70.567 8 69 6.433 69 4.5V4.5C69 2.567 70.567 1 72.5 1L90.5 1Z" fill="#4285F4"/>
<path d="M61.5 1C63.433 1 65 2.567 65 4.5V4.5C65 6.433 63.433 8 61.5 8L43.5 8C41.567 8 40 6.433 40 4.5V4.5C40 2.567 41.567 1 43.5 1L61.5 1Z" fill="#4285F4"/>
<path d="M58.5 18C60.433 18 62 19.567 62 21.5V21.5C62 23.433 60.433 25 58.5 25L43.5 25C41.567 25 40 23.433 40 21.5V21.5C40 19.567 41.567 18 43.5 18L58.5 18Z" fill="#4285F4"/>
<path d="M87.5 18C89.433 18 91 19.567 91 21.5V21.5C91 23.433 89.433 25 87.5 25L72.5 25C70.567 25 69 23.433 69 21.5V21.5C69 19.567 70.567 18 72.5 18L87.5 18Z" fill="#4285F4"/>
<circle cx="32.5" cy="4.5" r="3.5" fill="#34A853"/>
<path d="M156.5 26.1023C156.5 34.3264 150.302 40.7046 143 40.7046C135.698 40.7046 129.5 34.3264 129.5 26.1023C129.5 17.8782 135.698 11.5 143 11.5C150.302 11.5 156.5 17.8782 156.5 26.1023Z" fill="white" stroke="#FFD700" stroke-width="5"/>
<path d="M129.868 15.0829C128.836 13.7863 129.051 11.899 130.348 10.8676V10.8676C131.645 9.83616 133.532 10.0512 134.563 11.3479L135.186 12.1305L130.49 15.8655L129.868 15.0829Z" fill="#34A853"/>
<path d="M151.623 11.3478C152.654 10.0512 154.541 9.83613 155.838 10.8675V10.8675C157.135 11.899 157.35 13.7862 156.318 15.0829L155.696 15.8655L151 12.1304L151.623 11.3478Z" fill="#34A853"/>
<rect x="140.6" y="17" width="5" height="8.6" rx="2.5" fill="#EA4335"/>
<rect x="141.4" y="28.0383" width="5" height="22.02" rx="2.5" transform="rotate(-49.4264 141.4 28.0383)" fill="#FFD700"/>
<circle cx="143.1" cy="26" r="2.5" fill="#34A853"/>
</svg>
