<svg width="535" height="432" viewBox="0 0 535 432" fill="none" xmlns="http://www.w3.org/2000/svg">
<path d="M534.812 22.4903L507.814 0.75L0.1875 409.51L27.1861 431.25L65.3736 400.5H458.438C468.561 400.488 478.265 397.244 485.423 391.48C492.582 385.716 496.61 377.902 496.625 369.75V53.2403L534.812 22.4903ZM458.438 369.75H103.561L252.359 249.933L297.783 286.51C304.944 292.274 314.655 295.513 324.781 295.513C334.907 295.513 344.619 292.274 351.78 286.51L382.062 262.125L458.438 323.579V369.75ZM458.438 280.083L409.061 240.323C401.9 234.559 392.188 231.32 382.062 231.32C371.937 231.32 362.225 234.559 355.064 240.323L324.781 264.708L279.395 228.162L458.438 83.9903V280.083ZM76.5625 308.25V262.125L172.031 185.296L198.247 206.421L225.284 184.65L199.03 163.51C191.869 157.745 182.157 154.507 172.031 154.507C161.905 154.507 152.194 157.745 145.033 163.51L76.5625 218.645V62.25H382.062V31.5H76.5625C66.4376 31.5081 56.7304 34.7505 49.571 40.5155C42.4117 46.2804 38.3851 54.0971 38.375 62.25V308.25H76.5625Z" fill="black"/>
</svg>
